<svg width="25" height="25" viewBox="0 0 25 25" fill="none" xmlns="http://www.w3.org/2000/svg">
<g id="envelope 1" clip-path="url(#clip0_28_497)">
<path id="Vector" d="M19.7917 1.04175H5.20833C3.82751 1.0434 2.50371 1.59267 1.52731 2.56906C0.550919 3.54545 0.00165402 4.86925 0 6.25008L0 18.7501C0.00165402 20.1309 0.550919 21.4547 1.52731 22.4311C2.50371 23.4075 3.82751 23.9568 5.20833 23.9584H19.7917C21.1725 23.9568 22.4963 23.4075 23.4727 22.4311C24.4491 21.4547 24.9983 20.1309 25 18.7501V6.25008C24.9983 4.86925 24.4491 3.54545 23.4727 2.56906C22.4963 1.59267 21.1725 1.0434 19.7917 1.04175ZM5.20833 3.12508H19.7917C20.4154 3.12631 21.0245 3.31416 21.5406 3.66446C22.0567 4.01476 22.4561 4.51148 22.6875 5.09071L14.7104 13.0688C14.1234 13.6535 13.3286 13.9818 12.5 13.9818C11.6714 13.9818 10.8766 13.6535 10.2896 13.0688L2.3125 5.09071C2.5439 4.51148 2.94335 4.01476 3.45942 3.66446C3.9755 3.31416 4.5846 3.12631 5.20833 3.12508ZM19.7917 21.8751H5.20833C4.37953 21.8751 3.58468 21.5458 2.99862 20.9598C2.41257 20.3737 2.08333 19.5789 2.08333 18.7501V7.81258L8.81667 14.5417C9.7944 15.517 11.119 16.0647 12.5 16.0647C13.881 16.0647 15.2056 15.517 16.1833 14.5417L22.9167 7.81258V18.7501C22.9167 19.5789 22.5874 20.3737 22.0014 20.9598C21.4153 21.5458 20.6205 21.8751 19.7917 21.8751Z" fill="white"/>
</g>
<defs>
<clipPath id="clip0_28_497">
<rect width="25" height="25" fill="white"/>
</clipPath>
</defs>
</svg>
