<svg width="23" height="23" viewBox="0 0 23 23" fill="none" xmlns="http://www.w3.org/2000/svg">
<path id="Vector" d="M2.875 23C2.08437 23 1.40779 22.7428 0.84525 22.2285C0.28175 21.7133 0 21.0943 0 20.3714V8.54286C0 8.12667 0.102062 7.73238 0.306187 7.36C0.509354 6.98762 0.790625 6.68095 1.15 6.44L9.775 0.525714C10.0385 0.350476 10.3141 0.219048 10.6016 0.131428C10.8891 0.0438094 11.1885 0 11.5 0C11.8115 0 12.1109 0.0438094 12.3984 0.131428C12.6859 0.219048 12.9615 0.350476 13.225 0.525714L21.85 6.44C22.2094 6.68095 22.4911 6.98762 22.6952 7.36C22.8984 7.73238 23 8.12667 23 8.54286V20.3714C23 21.0943 22.7187 21.7133 22.1562 22.2285C21.5927 22.7428 20.9156 23 20.125 23H14.375V13.8H8.625V23H2.875Z" fill="#4770C1"/>
</svg>
