<svg width="25" height="25" viewBox="0 0 25 25" fill="none" xmlns="http://www.w3.org/2000/svg">
<g id="time-past 1" clip-path="url(#clip0_28_486)">
<path id="Vector" d="M12.5 0C9.4224 0.00219413 6.4543 1.14231 4.16667 3.20104V1.04167C4.16667 0.7654 4.05692 0.500448 3.86157 0.305097C3.66622 0.109747 3.40127 0 3.125 0C2.84873 0 2.58378 0.109747 2.38843 0.305097C2.19308 0.500448 2.08333 0.7654 2.08333 1.04167V4.16667C2.08333 4.99547 2.41257 5.79032 2.99863 6.37638C3.58468 6.96243 4.37953 7.29167 5.20833 7.29167H8.33333C8.6096 7.29167 8.87455 7.18192 9.0699 6.98657C9.26525 6.79122 9.375 6.52627 9.375 6.25C9.375 5.97373 9.26525 5.70878 9.0699 5.51343C8.87455 5.31808 8.6096 5.20833 8.33333 5.20833H5.20833C5.17321 5.20313 5.13842 5.19582 5.10417 5.18646C6.80159 3.4769 9.03972 2.40945 11.4365 2.16632C13.8333 1.92318 16.2402 2.51943 18.2464 3.85329C20.2525 5.18715 21.7336 7.17593 22.4367 9.48016C23.1398 11.7844 23.0214 14.2612 22.1016 16.4879C21.1819 18.7145 19.5179 20.5529 17.3937 21.6893C15.2695 22.8257 12.8167 23.1896 10.454 22.719C8.09129 22.2483 5.9652 20.9722 4.4386 19.1085C2.91201 17.2449 2.07955 14.9091 2.08333 12.5C2.08333 12.2237 1.97359 11.9588 1.77824 11.7634C1.58289 11.5681 1.31793 11.4583 1.04167 11.4583C0.7654 11.4583 0.500448 11.5681 0.305097 11.7634C0.109747 11.9588 0 12.2237 0 12.5C0 14.9723 0.733112 17.389 2.10663 19.4446C3.48015 21.5002 5.43238 23.1024 7.71646 24.0485C10.0005 24.9946 12.5139 25.2421 14.9386 24.7598C17.3634 24.2775 19.5907 23.087 21.3388 21.3388C23.087 19.5907 24.2775 17.3634 24.7598 14.9386C25.2421 12.5139 24.9946 10.0005 24.0485 7.71646C23.1024 5.43238 21.5002 3.48015 19.4446 2.10663C17.389 0.733112 14.9723 0 12.5 0Z" fill="white"/>
<path id="Vector_2" d="M12.5 6.25C12.2237 6.25 11.9588 6.35975 11.7634 6.5551C11.5681 6.75045 11.4583 7.0154 11.4583 7.29167V12.5C11.4584 12.7762 11.5682 13.0412 11.7635 13.2365L14.8885 16.3615C15.085 16.5512 15.3481 16.6562 15.6212 16.6538C15.8944 16.6515 16.1556 16.5419 16.3487 16.3488C16.5419 16.1556 16.6514 15.8944 16.6538 15.6213C16.6562 15.3481 16.5512 15.085 16.3614 14.8885L13.5416 12.0688V7.29167C13.5416 7.0154 13.4319 6.75045 13.2365 6.5551C13.0412 6.35975 12.7762 6.25 12.5 6.25Z" fill="white"/>
</g>
<defs>
<clipPath id="clip0_28_486">
<rect width="25" height="25" fill="white"/>
</clipPath>
</defs>
</svg>
